<svg xmlns="http://www.w3.org/2000/svg" viewBox="0 0 100 60">
  <defs>
    <style>
      .cls-1 {
        fill: #fff;
      }

      .cls-2 {
        fill: #333;
      }

      .cls-3 {
        fill: #fab0d7;
      }
    </style>
  </defs>
  <g id="Layer_1" data-name="Layer 1">
    <g>
      <g>
        <path class="cls-1" d="M13.6,46.38l-.33,0c-4.64-.91-5-4.28-5.19-6.29a5.4,5.4,0,0,0-.35-1.74A5.15,5.15,0,0,0,6.55,37c-1.29-1.14-3.07-2.71-3.07-7s1.78-5.9,3.07-7a5.15,5.15,0,0,0,1.18-1.28,5.4,5.4,0,0,0,.35-1.74c.21-2,.55-5.38,5.19-6.29a1.72,1.72,0,0,1,2,1.55c.18,2.49,1.34,3.24,3.09,4.38a20,20,0,0,1,1.92,1.36,11.73,11.73,0,0,1,2.76,3.42c.85,1.44,1.11,1.87,2.77,1.87a1.72,1.72,0,0,1,1.21.5l2.06,2.06a1.71,1.71,0,0,1,0,2.42l-2.06,2.06a1.72,1.72,0,0,1-1.21.5c-1.66,0-1.92.43-2.77,1.87a11.73,11.73,0,0,1-2.76,3.42,17,17,0,0,1-1.92,1.36c-1.75,1.14-2.91,1.89-3.09,4.38a1.71,1.71,0,0,1-1.71,1.58Z"/>
        <path class="cls-2" d="M13.6,47.16a2.59,2.59,0,0,1-.48,0c-5.2-1-5.61-4.9-5.82-7a6,6,0,0,0-.25-1.44,4.62,4.62,0,0,0-1-1.07C4.71,36.45,2.7,34.68,2.7,30s2-6.45,3.33-7.63a4.31,4.31,0,0,0,1-1.07,6,6,0,0,0,.25-1.43c.21-2.09.62-6,5.82-7a2.51,2.51,0,0,1,3,2.27c.15,2.1,1,2.66,2.74,3.77a22,22,0,0,1,2,1.41A12.52,12.52,0,0,1,23.75,24c.84,1.41.88,1.49,2.1,1.49a2.48,2.48,0,0,1,1.76.73l2.06,2.06a2.49,2.49,0,0,1,0,3.52l-2.06,2.06a2.48,2.48,0,0,1-1.76.73c-1.22,0-1.26.08-2.09,1.48a12.64,12.64,0,0,1-2.94,3.64,22,22,0,0,1-2,1.41c-1.72,1.11-2.59,1.68-2.74,3.78a2.5,2.5,0,0,1-2.49,2.3Zm0-32.76-.17,0C9.35,15.22,9.07,18,8.86,20a5.77,5.77,0,0,1-.45,2.05,6,6,0,0,1-1.34,1.48C5.82,24.65,4.26,26,4.26,30s1.56,5.35,2.81,6.45a5.83,5.83,0,0,1,1.34,1.48,5.57,5.57,0,0,1,.44,2c.22,2,.5,4.81,4.57,5.61a.93.93,0,0,0,1.11-.84c.21-2.87,1.64-3.8,3.45-5a21.9,21.9,0,0,0,1.85-1.31,11.05,11.05,0,0,0,2.58-3.22c.89-1.5,1.33-2.25,3.44-2.25a.88.88,0,0,0,.65-.28l2.07-2.05a.94.94,0,0,0,0-1.32L26.5,27.29a.88.88,0,0,0-.65-.28c-2.11,0-2.55-.75-3.44-2.25a11.05,11.05,0,0,0-2.58-3.22A19.66,19.66,0,0,0,18,20.24c-1.81-1.18-3.24-2.1-3.45-5a.94.94,0,0,0-.36-.67A1,1,0,0,0,13.6,14.4Z"/>
      </g>
      <g>
        <path class="cls-1" d="M86.4,46.38a1.71,1.71,0,0,1-1.71-1.58c-.18-2.49-1.34-3.24-3.09-4.38a17,17,0,0,1-1.92-1.36,11.73,11.73,0,0,1-2.76-3.42c-.85-1.44-1.11-1.87-2.77-1.87a1.7,1.7,0,0,1-1.2-.5l-2.07-2.06a1.71,1.71,0,0,1,0-2.42L73,26.73a1.7,1.7,0,0,1,1.2-.5c1.66,0,1.92-.43,2.77-1.87a11.73,11.73,0,0,1,2.76-3.42,20,20,0,0,1,1.92-1.36c1.75-1.14,2.91-1.89,3.09-4.38a1.72,1.72,0,0,1,2-1.55c4.64.91,5,4.28,5.19,6.29a5.4,5.4,0,0,0,.35,1.74A5.15,5.15,0,0,0,93.45,23c1.29,1.14,3.07,2.71,3.07,7s-1.78,5.9-3.07,7a5.15,5.15,0,0,0-1.18,1.28,5.4,5.4,0,0,0-.35,1.74c-.2,2-.55,5.38-5.19,6.29Z"/>
        <path class="cls-2" d="M86.4,47.16a2.5,2.5,0,0,1-2.49-2.3c-.15-2.1-1-2.67-2.74-3.78a22,22,0,0,1-2-1.41A12.78,12.78,0,0,1,76.24,36c-.82-1.4-.87-1.48-2.09-1.48a2.48,2.48,0,0,1-1.76-.73l-2.06-2.06a2.49,2.49,0,0,1,0-3.52l2.06-2.06a2.48,2.48,0,0,1,1.76-.73c1.22,0,1.27-.08,2.09-1.48a12.71,12.71,0,0,1,2.94-3.64,22,22,0,0,1,2-1.41c1.72-1.11,2.59-1.67,2.74-3.77a2.51,2.51,0,0,1,3-2.27c5.2,1,5.61,4.9,5.82,7A6,6,0,0,0,93,21.3a4.43,4.43,0,0,0,1,1.07c1.33,1.18,3.34,2.95,3.34,7.63s-2,6.45-3.34,7.63a4.43,4.43,0,0,0-1,1.07,6,6,0,0,0-.25,1.43c-.21,2.09-.62,6-5.82,7A2.59,2.59,0,0,1,86.4,47.16Zm0-32.76a1,1,0,0,0-.56.19.92.92,0,0,0-.37.67c-.21,2.88-1.64,3.8-3.45,5a21.9,21.9,0,0,0-1.85,1.31,11.05,11.05,0,0,0-2.58,3.22C76.7,26.26,76.26,27,74.15,27a.88.88,0,0,0-.65.28l-2.07,2.05a.94.94,0,0,0,0,1.32l2.07,2.05a.88.88,0,0,0,.65.28c2.11,0,2.55.75,3.44,2.25a11.05,11.05,0,0,0,2.58,3.22A21.9,21.9,0,0,0,82,39.77c1.81,1.17,3.24,2.1,3.45,5a.93.93,0,0,0,1.11.84c4.07-.8,4.36-3.57,4.57-5.6a5.58,5.58,0,0,1,.44-2,5.63,5.63,0,0,1,1.34-1.47C94.18,35.35,95.74,34,95.74,30s-1.56-5.35-2.81-6.46a5.63,5.63,0,0,1-1.34-1.47,5.57,5.57,0,0,1-.44-2c-.21-2-.5-4.81-4.57-5.61Z"/>
      </g>
      <path class="cls-2" d="M72,30.78a.78.78,0,1,1,0-1.56c12.89,0,15.18-4.82,15.2-4.87a.78.78,0,1,1,1.43.64C88.48,25.22,85.86,30.78,72,30.78Z"/>
      <path class="cls-2" d="M87.87,36.12a.8.8,0,0,1-.71-.46c0-.09-2.52-4.88-15.2-4.88a.78.78,0,1,1,0-1.56c13.9,0,16.52,5.56,16.63,5.8a.78.78,0,0,1-.4,1A.88.88,0,0,1,87.87,36.12Z"/>
      <path class="cls-2" d="M28,30.78c-13.9,0-16.52-5.56-16.63-5.79a.79.79,0,0,1,1.43-.65c0,.09,2.52,4.88,15.2,4.88a.78.78,0,1,1,0,1.56Z"/>
      <path class="cls-2" d="M12.13,36.11A.78.78,0,0,1,11.41,35c.11-.24,2.73-5.8,16.63-5.8a.78.78,0,1,1,0,1.56c-12.74,0-15.18,4.83-15.2,4.88A.8.8,0,0,1,12.13,36.11Z"/>
      <circle class="cls-1" cx="50" cy="29.93" r="25.51"/>
      <path class="cls-3" d="M50,30c-3.45-3.11-4.72-19.91,15.86-18.65a15.53,15.53,0,0,0-7.76-5.46,15.33,15.33,0,0,0-7.56-.36C33.79,17.53,45.37,29.76,50,30Z"/>
      <path class="cls-3" d="M50,30c-4,2.33-20.38-1.66-12.83-20.83A15.22,15.22,0,0,0,26.91,21.92C33.15,41.57,48.36,34.33,50,30Z"/>
      <path class="cls-3" d="M50,30c1,4.54-7.87,18.87-23.78,5.77a15.14,15.14,0,0,0,9,13.71C55.82,49.59,53.64,32.9,50,30Z"/>
      <path class="cls-3" d="M50,30c4.63.48,15.52,13.32-1.86,24.4a1.75,1.75,0,0,0,.57,1.06,1.91,1.91,0,0,0,1.37.33c5.82-.41,8.31-1.6,8.31-1.6A18.9,18.9,0,0,0,64,50.11C70.47,30.53,53.91,27.44,50,30Z"/>
      <path class="cls-3" d="M73.47,23C56.85,10.69,48.8,25.5,50,30c1.89-4.25,17.49-10.66,22.64,9.34a9.77,9.77,0,0,0,1.84-2.42,11.75,11.75,0,0,0,1-7A18.31,18.31,0,0,0,73.47,23Z"/>
      <path class="cls-2" d="M50,56.22A26.22,26.22,0,1,1,76.22,30,26.25,26.25,0,0,1,50,56.22ZM50,5.34A24.66,24.66,0,1,0,74.66,30,24.68,24.68,0,0,0,50,5.34Z"/>
      <path class="cls-2" d="M63.5,30.23a2.34,2.34,0,1,0-2.33,2.33A2.33,2.33,0,0,0,63.5,30.23Z"/>
      <path class="cls-2" d="M36.5,30.23a2.34,2.34,0,1,1,2.33,2.33A2.33,2.33,0,0,1,36.5,30.23Z"/>
      <path class="cls-2" d="M50,36.22a4.06,4.06,0,0,1-3.06-1.11A3.24,3.24,0,0,1,46,32.84a.87.87,0,0,1,1.73,0,1.57,1.57,0,0,0,.44,1,3.17,3.17,0,0,0,3.61,0,1.63,1.63,0,0,0,.43-1,.87.87,0,0,1,.84-.9.84.84,0,0,1,.89.84,3.24,3.24,0,0,1-.91,2.27A4.06,4.06,0,0,1,50,36.22Z"/>
    </g>
  </g>
</svg>
